
        <svg xmlns="http://www.w3.org/2000/svg" xmlns:xlink="http://www.w3.org/1999/xlink" version="1.1" width="3300" height="2736.0318083258103" viewBox="0 0 3300 2736.0318083258103">
			
			<g transform="scale(15) translate(10, 10)">
				<defs id="SvgjsDefs1372"/><g id="SvgjsG1373" featureKey="symbolFeature-0" transform="matrix(1.043841385995059,0,0,1.043841385995059,47.494780574063384,-2.7139880017810416)" fill="#fff"><path xmlns="http://www.w3.org/2000/svg" d="M8.5,16.1c1.2,0,2.2-0.3,3.2-0.9c3.3,2.3,14.5,10.3,16.3,11.4c1.6,1,3,1.9,5.1,2c1,0,3.2,0.1,6.6,0.1  c0.7,1.4,2.2,2.4,3.9,2.4c2.4,0,4.4-2,4.4-4.4c0-2.4-2-4.4-4.4-4.4c-2.1,0-3.9,1.5-4.3,3.5c-3.1,0-5.2,0-6.1-0.1  c-1.3,0-2.1-0.5-3.6-1.5c-1.6-1-12.2-8.6-15.8-11.1c0.4-0.8,0.7-1.8,0.7-2.8c0-3.3-2.7-5.9-5.9-5.9s-5.9,2.7-5.9,5.9  S5.2,16.1,8.5,16.1z M8.5,7.2c1.6,0,2.9,1.3,2.9,2.9c0,1.6-1.3,2.9-2.9,2.9c-1.6,0-2.9-1.3-2.9-2.9C5.6,8.5,6.9,7.2,8.5,7.2z"/><path xmlns="http://www.w3.org/2000/svg" d="M14.4,43.1h8.8c0.6,1.7,2.2,2.9,4.1,2.9c2.4,0,4.4-2,4.4-4.4c0-2.4-2-4.4-4.4-4.4c-1.9,0-3.5,1.2-4.1,2.9h-8.8  c-0.7-2.5-3-4.4-5.7-4.4c-3.3,0-5.9,2.7-5.9,5.9s2.7,5.9,5.9,5.9C11.5,47.6,13.8,45.7,14.4,43.1z M5.8,41.6c0-1.6,1.3-2.9,2.9-2.9  c1.6,0,2.9,1.3,2.9,2.9c0,1.6-1.3,2.9-2.9,2.9C7.1,44.6,5.8,43.2,5.8,41.6z"/><path xmlns="http://www.w3.org/2000/svg" d="M15.7,58.9c2.7,0,5.1-1.9,5.7-4.4h1.8c0.6,1.7,2.2,2.9,4.1,2.9c2.4,0,4.4-2,4.4-4.4c0-2.4-2-4.4-4.4-4.4  c-1.9,0-3.5,1.2-4.1,2.9h-1.8c-0.7-2.5-3-4.4-5.7-4.4c-3.3,0-5.9,2.7-5.9,5.9S12.4,58.9,15.7,58.9z M15.7,50c1.6,0,2.9,1.3,2.9,2.9  s-1.3,2.9-2.9,2.9c-1.6,0-2.9-1.3-2.9-2.9S14.1,50,15.7,50z"/><path xmlns="http://www.w3.org/2000/svg" d="M10,81.9V71.6c0-4.7,1.6-5.7,4.3-5.7c3.3,0,7,0,8.6,0.1c0.6,1.7,2.2,2.9,4.2,2.9c2.4,0,4.4-2,4.4-4.4c0-2.4-2-4.4-4.4-4.4  c-1.9,0-3.5,1.2-4.1,2.9c-1.7,0-5.4-0.1-8.6-0.1C7,62.9,7,69.4,7,71.6v10.2c-2.6,0.6-4.6,3-4.6,5.8c0,3.3,2.7,5.9,5.9,5.9  s5.9-2.7,5.9-5.9C14.3,84.9,12.5,82.6,10,81.9z M8.3,90.5c-1.6,0-2.9-1.3-2.9-2.9c0-1.6,1.3-2.9,2.9-2.9c1.6,0,2.9,1.3,2.9,2.9  C11.3,89.2,9.9,90.5,8.3,90.5z"/><path xmlns="http://www.w3.org/2000/svg" d="M91.6,81.8V71.6c0-2.1,0-8.7-7.3-8.7c-3.3,0-7,0-8.6,0.1c-0.6-1.7-2.2-2.9-4.1-2.9c-2.4,0-4.4,2-4.4,4.4  c0,2.4,2,4.4,4.4,4.4c1.9,0,3.5-1.2,4.2-2.9c1.7,0,5.4-0.1,8.6-0.1c2.7,0,4.3,0.9,4.3,5.7v10.3c-2.5,0.7-4.3,3-4.3,5.7  c0,3.3,2.7,5.9,5.9,5.9s5.9-2.7,5.9-5.9C96.2,84.8,94.2,82.4,91.6,81.8z M90.3,90.5c-1.6,0-2.9-1.3-2.9-2.9c0-1.6,1.3-2.9,2.9-2.9  c1.6,0,2.9,1.3,2.9,2.9C93.2,89.2,91.9,90.5,90.3,90.5z"/><path xmlns="http://www.w3.org/2000/svg" d="M72,46c1.7,0,3.2-1,3.9-2.4c1.7,0,4.7,0,7.3,0c6.8,0,6.8-6,6.8-8V13.5c2.4-0.6,4.2-2.8,4.2-5.4c0-3-2.5-5.5-5.5-5.5  c-3,0-5.5,2.5-5.5,5.5c0,2.5,1.6,4.6,3.9,5.3v22.2c0,4.2-1.3,5-3.8,5c-2.5,0-5.2,0-6.9,0c-0.4-2-2.2-3.5-4.3-3.5  c-2.4,0-4.4,2-4.4,4.4C67.5,44,69.5,46,72,46z M86.1,8.2c0-1.4,1.1-2.5,2.5-2.5c1.4,0,2.5,1.1,2.5,2.5c0,1.4-1.1,2.5-2.5,2.5  C87.3,10.7,86.1,9.6,86.1,8.2z"/><path xmlns="http://www.w3.org/2000/svg" d="M71.7,57.7c1.9,0,3.5-1.2,4.1-2.9h10.8c0.7,2.5,3,4.4,5.7,4.4c3.3,0,5.9-2.7,5.9-5.9c0-3.3-2.7-5.9-5.9-5.9  c-2.7,0-5.1,1.9-5.7,4.4H75.9c-0.6-1.7-2.2-2.9-4.1-2.9c-2.4,0-4.4,2-4.4,4.4S69.3,57.7,71.7,57.7z M92.4,50.4  c1.6,0,2.9,1.3,2.9,2.9c0,1.6-1.3,2.9-2.9,2.9s-2.9-1.3-2.9-2.9C89.4,51.7,90.8,50.4,92.4,50.4z"/><path xmlns="http://www.w3.org/2000/svg" d="M41.4,34.2c-3.5,0-6.3,2.8-6.3,6.3v25.6c0,3.5,2.8,6.3,6.3,6.3h16.2c3.5,0,6.3-2.8,6.3-6.3V40.5c0-3.5-2.8-6.3-6.3-6.3H41.4  z"/><path xmlns="http://www.w3.org/2000/svg" d="M35.1,18.3c2.7,0,5-1.8,5.7-4.3l10,0c1.1,0,2.1,0,2.5,0.4c0.2,0.2,0.5,0.7,0.5,2c0,1.8,0,4.2-0.1,6.1  c-1.6,0.7-2.8,2.2-2.8,4.1c0,2.4,2,4.4,4.4,4.4c2.4,0,4.4-2,4.4-4.4c0-2-1.3-3.6-3.1-4.2c0-1.9,0.1-4.2,0.1-6c0-1.9-0.4-3.3-1.3-4.1  c-1.3-1.3-3-1.2-4.6-1.2l-9.9,0c-0.6-2.6-3-4.5-5.8-4.5c-3.3,0-5.9,2.7-5.9,5.9C29.2,15.6,31.8,18.3,35.1,18.3z M35.1,9.4  c1.6,0,2.9,1.3,2.9,2.9c0,1.6-1.3,2.9-2.9,2.9c-1.6,0-2.9-1.3-2.9-2.9C32.2,10.8,33.5,9.4,35.1,9.4z"/><path xmlns="http://www.w3.org/2000/svg" d="M43.6,75.7c-1.8,0-3.4,1.1-4,2.6H28.5c-2.1,0-6.5,0-6.5,5.9c0,0.7,0,1.4,0,2c-2.6,0.6-4.5,3-4.5,5.7c0,3.3,2.7,5.9,5.9,5.9  s5.9-2.7,5.9-5.9c0-2.7-1.8-5-4.3-5.7c0-0.6-0.1-1.3-0.1-2c0-2.7,0.9-2.9,3.5-2.9h10.9c0.5,1.9,2.2,3.2,4.2,3.2c2.4,0,4.4-2,4.4-4.4  C48,77.7,46,75.7,43.6,75.7z M26.3,92c0,1.6-1.3,2.9-2.9,2.9s-2.9-1.3-2.9-2.9s1.3-2.9,2.9-2.9S26.3,90.3,26.3,92z"/><path xmlns="http://www.w3.org/2000/svg" d="M72,86.2c0-0.6,0-1.3,0-2c0-5.9-4.4-5.9-6.5-5.9h-6.1c-0.7-1.6-2.2-2.6-4-2.6c-2.4,0-4.4,2-4.4,4.4c0,2.4,2,4.4,4.4,4.4  c2,0,3.7-1.4,4.2-3.2h5.9c2.6,0,3.5,0.2,3.5,2.9c0,0.7,0,1.4-0.1,2c-2.5,0.7-4.3,3-4.3,5.7c0,3.3,2.7,5.9,5.9,5.9  c3.3,0,5.9-2.7,5.9-5.9C76.5,89.2,74.6,86.8,72,86.2z M70.6,94.9c-1.6,0-2.9-1.3-2.9-2.9S69,89,70.6,89c1.6,0,2.9,1.3,2.9,2.9  S72.2,94.9,70.6,94.9z"/></g><g id="SvgjsG1374" featureKey="nameFeature-0" transform="matrix(1.3857636760798553,0,0,1.3857636760798553,-0.11086136005179276,106.4172659269203)" fill="#fff"><path d="M2.4 25.16 c-0.72 -1.68 -0.23996 -3.2267 1.44 -4.64 c0.58668 -0.48 1.18 -0.84668 1.78 -1.1 s1.1533 -0.43332 1.66 -0.54 c0.58668 -0.10668 1.1467 -0.16 1.68 -0.16 c-0.29332 0.26668 -0.52 0.58668 -0.68 0.96 c-0.13332 0.32 -0.21332 0.71332 -0.24 1.18 s0.10664 1.0067 0.39996 1.62 c0.18668 0.4 0.28668 0.82 0.3 1.26 s-0.06 0.86 -0.22 1.26 s-0.38668 0.76 -0.68 1.08 s-0.65332 0.57332 -1.08 0.76 c-0.4 0.18668 -0.82 0.28 -1.26 0.28 s-0.86 -0.07332 -1.26 -0.22 s-0.76 -0.36668 -1.08 -0.66 s-0.57332 -0.65332 -0.76 -1.08 z M7.6 39.92 l3.08 0 c-1.0933 -0.37332 -1.9866 -1.04 -2.68 -2 s-1.04 -2.0533 -1.04 -3.28 s0.34668 -2.32 1.04 -3.28 s1.5866 -1.6267 2.68 -2 l-3.52 0 c-1.36 0 -2.5 0.17332 -3.42 0.52 s-1.6467 0.78 -2.18 1.3 s-0.91332 1.0867 -1.14 1.7 s-0.34 1.2 -0.34 1.76 c0 0.58668 0.1 1.1867 0.3 1.8 s0.56668 1.18 1.1 1.7 s1.26 0.94668 2.18 1.28 s2.0867 0.5 3.5 0.5 l0.44 0 z M15.56 19.04 l-0.36 -0.08 l0 9.2 l0 11.84 l7.32 0 l0 -11.28 c0 -1.1733 -0.18668 -2.2933 -0.56 -3.36 s-0.88 -2.0267 -1.52 -2.88 s-1.38 -1.58 -2.22 -2.18 s-1.7267 -1.02 -2.66 -1.26 z M44.92 37.36 c0.93332 0 1.7733 -0.09332 2.52 -0.28 c-1.0933 1.0133 -2.3666 1.82 -3.82 2.42 s-3.02 0.9 -4.7 0.9 c-1.6533 0 -3.2066 -0.28668 -4.66 -0.86 s-2.72 -1.36 -3.8 -2.36 s-1.9333 -2.1733 -2.56 -3.52 s-0.94 -2.78 -0.94 -4.3 c0 -1.4667 0.26668 -2.84 0.8 -4.12 s1.26 -2.4067 2.18 -3.38 s2.0067 -1.76 3.26 -2.36 s2.5866 -0.94 4 -1.02 c-0.98668 1.12 -1.7067 2.3733 -2.16 3.76 s-0.68 2.9467 -0.68 4.68 c0 1.5467 0.27332 2.96 0.82 4.24 s1.3 2.38 2.26 3.3 s2.08 1.6333 3.36 2.14 s2.6533 0.76 4.12 0.76 z M49.32 25.560000000000002 c-0.18668 0.50668 -0.46004 0.93328 -0.82004 1.28 s-0.76 0.61336 -1.2 0.80004 s-0.9 0.28 -1.38 0.28 s-0.96 -0.09332 -1.44 -0.28 s-0.9 -0.46 -1.26 -0.82 s-0.62668 -0.76 -0.8 -1.2 s-0.26664 -0.90668 -0.27996 -1.4 s0.07336 -0.98 0.26004 -1.46 c0.29332 -0.69332 0.42 -1.3 0.38 -1.82 s-0.14 -0.96668 -0.3 -1.34 c-0.18668 -0.4 -0.45336 -0.74668 -0.80004 -1.04 c0.72 0.05332 1.4267 0.14664 2.12 0.27996 c0.61332 0.13332 1.2533 0.32 1.92 0.56 s1.2934 0.57332 1.88 1 c0.37332 0.29332 0.71332 0.63332 1.02 1.02 s0.54668 0.81336 0.72 1.28 s0.26664 0.94 0.27996 1.42 s-0.08668 0.96 -0.3 1.44 z M67.44 19.16 c0.93332 0.24 1.82 0.66 2.66 1.26 s1.58 1.3267 2.22 2.18 s1.1467 1.8133 1.52 2.88 s0.56 2.1867 0.56 3.36 l0 11.16 l-7.32 0 l0 -11.72 l0 -9.2 c0.05332 0.02668 0.11332 0.04 0.18 0.04 s0.12668 0.01332 0.18 0.04 z M51.2 13.920000000000002 c1.2267 -0.53332 2.3732 -1.0867 3.4399 -1.66 s1.9867 -1.1 2.76 -1.58 c0.90668 -0.53332 1.7334 -1.0666 2.48 -1.6 l0 30.92 l-7 0 l0 -21.16 c0 -1.0133 -0.08668 -1.84 -0.26 -2.48 s-0.36664 -1.1467 -0.57996 -1.52 c-0.26668 -0.42668 -0.54668 -0.73336 -0.84 -0.92004 z M97.88 19.32 c0.74668 0.61332 1.1599 1.38 1.2399 2.3 s-0.17332 1.74 -0.76 2.46 c-0.61332 0.74668 -1.3866 1.16 -2.32 1.24 s-1.7733 -0.18668 -2.52 -0.8 c-0.53332 -0.45332 -1.04 -0.73332 -1.52 -0.84 s-0.90668 -0.13336 -1.28 -0.08004 c-0.45332 0.05332 -0.85332 0.18664 -1.2 0.39996 c0.18668 -0.56 0.42668 -1.1067 0.72 -1.64 c0.26668 -0.45332 0.61336 -0.94664 1.04 -1.48 s0.97336 -1.0266 1.64 -1.48 c1.8933 -1.2533 3.5466 -1.28 4.96 -0.08 z M80.279921876 21.8 c0.82668 -0.21332 1.66 -0.5134 2.5 -0.90008 s1.5933 -0.78668 2.26 -1.2 s1.2067 -0.78664 1.62 -1.12 s0.62 -0.56664 0.62 -0.69996 l0 22 l-7 0 l0 -18.08 z M101 25.16 c-0.72 -1.68 -0.23996 -3.2267 1.44 -4.64 c0.58668 -0.48 1.18 -0.84668 1.78 -1.1 s1.1533 -0.43332 1.66 -0.54 c0.58668 -0.10668 1.1467 -0.16 1.68 -0.16 c-0.29332 0.26668 -0.52 0.58668 -0.68 0.96 c-0.13332 0.32 -0.21332 0.71332 -0.24 1.18 s0.10664 1.0067 0.39996 1.62 c0.18668 0.4 0.28668 0.82 0.3 1.26 s-0.06 0.86 -0.22 1.26 s-0.38668 0.76 -0.68 1.08 s-0.65332 0.57332 -1.08 0.76 c-0.4 0.18668 -0.82 0.28 -1.26 0.28 s-0.86 -0.07332 -1.26 -0.22 s-0.76 -0.36668 -1.08 -0.66 s-0.57332 -0.65332 -0.76 -1.08 z M106.19999999999999 39.92 l3.08 0 c-1.0933 -0.37332 -1.9866 -1.04 -2.68 -2 s-1.04 -2.0533 -1.04 -3.28 s0.34668 -2.32 1.04 -3.28 s1.5866 -1.6267 2.68 -2 l-3.52 0 c-1.36 0 -2.5 0.17332 -3.42 0.52 s-1.6467 0.78 -2.18 1.3 s-0.91332 1.0867 -1.14 1.7 s-0.34 1.2 -0.34 1.76 c0 0.58668 0.1 1.1867 0.3 1.8 s0.56668 1.18 1.1 1.7 s1.26 0.94668 2.18 1.28 s2.0867 0.5 3.5 0.5 l0.44 0 z M114.16 19.04 l-0.36 -0.08 l0 9.2 l0 11.84 l7.32 0 l0 -11.28 c0 -1.1733 -0.18668 -2.2933 -0.56 -3.36 s-0.88 -2.0267 -1.52 -2.88 s-1.38 -1.58 -2.22 -2.18 s-1.7267 -1.02 -2.66 -1.26 z M144 18.8 c-0.4 0.85332 -1.0334 1.4266 -1.9 1.7199 s-1.7134 0.25332 -2.54 -0.12 c-0.85332 -0.4 -1.4333 -1.0333 -1.74 -1.9 s-0.26 -1.7267 0.14 -2.58 c0.29332 -0.61332 0.43332 -1.16 0.42 -1.64 s-0.08664 -0.88 -0.21996 -1.2 c-0.13332 -0.37332 -0.34664 -0.70664 -0.63996 -0.99996 c0.56 0 1.1333 0.06668 1.72 0.2 c0.50668 0.13332 1.06 0.33332 1.66 0.6 s1.1933 0.65336 1.78 1.16 c1.7067 1.4933 2.1467 3.08 1.32 4.76 z M126.39996093799999 20.4 c0 -0.8 0.09332 -1.5267 0.28 -2.18 s0.44 -1.24 0.76 -1.76 s0.68 -0.98668 1.08 -1.4 s0.81332 -0.78 1.24 -1.1 c0.98668 -0.72 2.1067 -1.28 3.36 -1.68 l0 27.88 l-6.72 0 l0 -19.76 z M135.56 28.240000000000002 c0.61332 -0.29332 1.2667 -0.68 1.96 -1.16 c0.56 -0.4 1.1867 -0.91332 1.88 -1.54 s1.3466 -1.4067 1.96 -2.34 l0 5.04 l0 5.04 c-0.66668 -0.93332 -1.34 -1.72 -2.02 -2.36 s-1.3 -1.16 -1.86 -1.56 c-0.66668 -0.48 -1.3067 -0.85332 -1.92 -1.12 z "/></g>
			</g>
		</svg>
	